<svg id="master-artboard" xmlns="http://www.w3.org/2000/svg" viewBox="0 0 115.37 115.37"><defs><style>.cls-1{fill:#fff197;}.cls-1,.cls-2,.cls-3,.cls-4,.cls-5{stroke:#362a45;stroke-width:1.67px;}.cls-1,.cls-3,.cls-4,.cls-5{stroke-miterlimit:10;}.cls-2{fill:none;stroke-linecap:round;stroke-linejoin:round;}.cls-3{fill:#e9187e;}.cls-4{fill:#ed1c24;}.cls-5{fill:#ffde17;}</style></defs><title>abouticon</title><path class="cls-1" d="M40.26,98.75l-5.91,14.4.77.77,1,1,14.21-6.1-.07-.07-9.88-9.88Z" transform="translate(-31.28 -2.38)"/><path class="cls-2" d="M35.11,113.92l-3,3" transform="translate(-31.28 -2.38)"/><path class="cls-3" d="M143.21,5.82c-5.56-5.56-10.62-.5-10.62-.5l5.56,5.56,5.56,5.56S148.77,11.38,143.21,5.82Z" transform="translate(-31.28 -2.38)"/><path class="cls-4" d="M132.6,5.32l-46,46,.62.62,9.88,9.88.62.62,46-46-5.56-5.56Zm4.94,17.29-4.76-4.76L119.43,31.19a2,2,0,0,1-.55,1.81l-6.18,6.18a2,2,0,1,1-2.86-2.86L116,30.15a2,2,0,0,1,1.81-.55l13.34-13.34-4.76-4.76L128.94,9l11.12,11.12Z" transform="translate(-31.28 -2.38)"/><path class="cls-3" d="M83.74,55.42l9.88,9.88L50.21,108.7l-9.88-9.88Z" transform="translate(-31.28 -2.38)"/><path class="cls-5" d="M126.42,11.49l4.76,4.76L117.84,29.6a2,2,0,0,0-1.81.55l-6.18,6.18a2,2,0,1,0,2.86,2.86L118.88,33a2,2,0,0,0,.55-1.81l13.34-13.34,4.76,4.76,2.52-2.52L128.94,9Z" transform="translate(-31.28 -2.38)"/><path class="cls-5" d="M87.23,51.92l9.88,9.88-3.49,3.49-9.88-9.88Z" transform="translate(-31.28 -2.38)"/></svg>