<svg id="master-artboard" xmlns="http://www.w3.org/2000/svg" viewBox="0 0 159.9 97.84"><defs><style>.cls-1{fill:#c4c4c4;}.cls-2{fill:#424746;}.cls-3{fill:#8989cc;}.cls-4{fill:#6965a8;}.cls-5{fill:#eaeaea;}.cls-6{fill:#e0e0e0;}</style></defs><title>bike_icon</title><path class="cls-1" d="M111.25,31.32a2.08,2.08,0,1,1-3.7,1.9l-6.5-12.7a2.08,2.08,0,1,1,3.7-1.9Z" transform="translate(-5.05 -10.58)"/><path class="cls-2" d="M102.25,20.82a2.3,2.3,0,0,1,0-4.6H119a9.3,9.3,0,0,1,6.6,2.8h0a9.21,9.21,0,0,1,2.7,6.6h0a9.3,9.3,0,0,1-2.8,6.6l-.1.1a9.5,9.5,0,0,1-6.5,2.6,2.3,2.3,0,0,1,0-4.6,4.45,4.45,0,0,0,3.2-1.3l.1-.1a4.53,4.53,0,0,0,1.4-3.3h0a4.37,4.37,0,0,0-1.4-3.3h0a5,5,0,0,0-3.3-1.4h-16.6Z" transform="translate(-5.05 -10.58)"/><path class="cls-2" d="M63.25,50.22h0a34,34,0,0,0-48.2,0h0a34,34,0,0,0-.2,48l.2.2a34,34,0,0,0,48.2,0h0a33.93,33.93,0,0,0,10-24.1A34.79,34.79,0,0,0,63.25,50.22ZM39.05,104a29.6,29.6,0,1,1,29.6-29.6A29.66,29.66,0,0,1,39.05,104Z" transform="translate(-5.05 -10.58)"/><path class="cls-1" d="M39.05,44.82a29.6,29.6,0,1,0,29.6,29.6A29.66,29.66,0,0,0,39.05,44.82Zm18.6,48.1a26.31,26.31,0,0,1-37.2,0l-.2-.2a26.32,26.32,0,0,1,.2-37h0a26.31,26.31,0,0,1,37.2,0h0a26.48,26.48,0,0,1,7.7,18.6A25.89,25.89,0,0,1,57.65,92.92Z" transform="translate(-5.05 -10.58)"/><path class="cls-2" d="M154.95,50.22h0a34,34,0,0,0-48.2,0h0a34,34,0,0,0-.2,48l.2.2a34,34,0,0,0,48.2,0h0a34,34,0,0,0,0-48.2ZM130.85,105a30.7,30.7,0,1,1,30.7-30.7A30.77,30.77,0,0,1,130.85,105Z" transform="translate(-5.05 -10.58)"/><path class="cls-1" d="M130.85,43.72a30.7,30.7,0,1,0,30.7,30.7A30.77,30.77,0,0,0,130.85,43.72Zm0,57.9a27.25,27.25,0,1,1,27.2-27.2A27.31,27.31,0,0,1,130.85,101.62Z" transform="translate(-5.05 -10.58)"/><path class="cls-3" d="M130.85,80a5.61,5.61,0,0,0,5.6-5.7,5.65,5.65,0,1,0-5.6,5.7Z" transform="translate(-5.05 -10.58)"/><path class="cls-4" d="M109.75,26.92l23.1,46.3a2.91,2.91,0,1,1-5.2,2.6l-18.5-37.1-22,38a2.88,2.88,0,0,1-2.6,1.6H37.65a2.3,2.3,0,0,1-1.4-.4,2.85,2.85,0,0,1-1.1-3.9l24.3-42.1-6.1-12.1a2.91,2.91,0,1,1,5.2-2.6l6.4,12.7h39.8l-.4-.8a2.36,2.36,0,0,1,.1-2.3,2.31,2.31,0,0,1,2-1.1h1.3a2.2,2.2,0,0,1,2,1.2Zm-41.9,8.8,16.9,33.7,19.4-33.7Zm12,36.8L62.65,38l-19.9,34.5Z" transform="translate(-5.05 -10.58)"/><path class="cls-2" d="M46.05,20.22h24.8a1.58,1.58,0,0,0,1.6-1.6v-1.9a1.22,1.22,0,0,0-1.2-1.2c-3.1-.3-12.2-1.3-19-4.1-7.9-3.2-9.8,3.5-7.6,7.9A1.51,1.51,0,0,0,46.05,20.22Z" transform="translate(-5.05 -10.58)"/><path class="cls-5" d="M46.55,65.92l37.8-.6a1.22,1.22,0,0,1,1.2,1.2,1.2,1.2,0,0,1-1.1,1.2l-39.2.6,1.3-2.4Zm-7.2,16a1.15,1.15,0,1,1,.1-2.3l44.2,1a1.13,1.13,0,0,1,1.1,1.2,1.08,1.08,0,0,1-1.2,1.1Z" transform="translate(-5.05 -10.58)"/><path class="cls-3" d="M39.05,83.42a9,9,0,1,0-9-9A9.09,9.09,0,0,0,39.05,83.42Z" transform="translate(-5.05 -10.58)"/><path class="cls-4" d="M50.35,78.32H37.65a2.3,2.3,0,0,1-1.4-.4,2.85,2.85,0,0,1-1.1-3.9l10.2-17.7h5v2.9l-7.7,13.3h7.7Z" transform="translate(-5.05 -10.58)"/><path class="cls-2" d="M79.15,56h11.9a1.32,1.32,0,0,0,1.3-1.3V52a1.32,1.32,0,0,0-1.3-1.3H79.15a1.32,1.32,0,0,0-1.3,1.3v2.7A1.32,1.32,0,0,0,79.15,56Z" transform="translate(-5.05 -10.58)"/><path class="cls-6" d="M83.25,73a1.8,1.8,0,1,0,3.6,0V54.92a1.8,1.8,0,1,0-3.6,0Z" transform="translate(-5.05 -10.58)"/><path class="cls-1" d="M85.05,83.92a9.6,9.6,0,1,0-9.6-9.6A9.73,9.73,0,0,0,85.05,83.92Z" transform="translate(-5.05 -10.58)"/><path class="cls-2" d="M85.05,78.82a4.4,4.4,0,1,0-4.4-4.4A4.44,4.44,0,0,0,85.05,78.82Z" transform="translate(-5.05 -10.58)"/><path class="cls-5" d="M83.25,74.32a1.8,1.8,0,1,1,3.6,0v20.5a1.8,1.8,0,1,1-3.6,0Z" transform="translate(-5.05 -10.58)"/><path class="cls-2" d="M79.15,91.32h11.9a1.32,1.32,0,0,1,1.3,1.3v2.7a1.32,1.32,0,0,1-1.3,1.3H79.15a1.32,1.32,0,0,1-1.3-1.3v-2.7A1.32,1.32,0,0,1,79.15,91.32Z" transform="translate(-5.05 -10.58)"/></svg>