<svg id="master-artboard" xmlns="http://www.w3.org/2000/svg" viewBox="0 0 97.6 69.1"><defs><style>.cls-1{fill:#f04b41;}.cls-2{fill:#d13530;}.cls-3{fill:#d7d6d4;}.cls-4{fill:#ededef;}.cls-5{fill:#10a1a3;}.cls-6{fill:#29bec5;}.cls-7{fill:#143459;}.cls-8{fill:#371214;}.cls-12,.cls-9{fill:#fff;}.cls-10{fill:#2e2e2e;}.cls-11{fill:#f4c715;}.cls-12{opacity:0.5;isolation:isolate;}.cls-13{fill:#bb3c30;}</style></defs><title>camera_icon</title><path class="cls-1" d="M17.25,29.7h86.8a5.38,5.38,0,0,1,5.4,5.4V89.8a5.38,5.38,0,0,1-5.4,5.4H17.25a5.38,5.38,0,0,1-5.4-5.4V35.1A5.44,5.44,0,0,1,17.25,29.7Z" transform="translate(-11.85 -26.1)"/><path class="cls-2" d="M94.35,29.7h9.7a5.38,5.38,0,0,1,5.4,5.4V89.8a5.38,5.38,0,0,1-5.4,5.4h-9.7Z" transform="translate(-11.85 -26.1)"/><path class="cls-3" d="M100.25,62.4A26.4,26.4,0,1,1,73.85,36,26.4,26.4,0,0,1,100.25,62.4Z" transform="translate(-11.85 -26.1)"/><path class="cls-4" d="M94.65,62.4a20.8,20.8,0,1,1-20.8-20.8A20.8,20.8,0,0,1,94.65,62.4Z" transform="translate(-11.85 -26.1)"/><path class="cls-5" d="M89.15,62.4a15.3,15.3,0,1,1-15.3-15.3A15.3,15.3,0,0,1,89.15,62.4Z" transform="translate(-11.85 -26.1)"/><path class="cls-6" d="M84.55,62.4a10.7,10.7,0,0,1-10.7,10.7h0a10.7,10.7,0,0,1-10.7-10.7h0a10.7,10.7,0,0,1,10.7-10.7h0a10.7,10.7,0,0,1,10.7,10.7Z" transform="translate(-11.85 -26.1)"/><path class="cls-5" d="M81,62.4a7.2,7.2,0,0,1-7.2,7.2h0a7.2,7.2,0,0,1-7.2-7.2h0a7.2,7.2,0,0,1,7.2-7.2h0A7.2,7.2,0,0,1,81,62.4Z" transform="translate(-11.85 -26.1)"/><path class="cls-7" d="M78.75,62.4a4.9,4.9,0,1,1-4.9-4.9A4.9,4.9,0,0,1,78.75,62.4Z" transform="translate(-11.85 -26.1)"/><path class="cls-8" d="M76.95,62.4a3.1,3.1,0,0,1-3.1,3.1h0a3.1,3.1,0,0,1-3.1-3.1h0a3.1,3.1,0,0,1,3.1-3.1h0a3.1,3.1,0,0,1,3.1,3.1Z" transform="translate(-11.85 -26.1)"/><path class="cls-9" d="M76.75,61a1.4,1.4,0,1,1-1.4-1.4A1.4,1.4,0,0,1,76.75,61Z" transform="translate(-11.85 -26.1)"/><path class="cls-9" d="M72.35,64.6a.7.7,0,0,1-.7.7h0a.7.7,0,0,1-.7-.7h0a.7.7,0,0,1,.7-.7h0a.7.7,0,0,1,.7.7Z" transform="translate(-11.85 -26.1)"/><path class="cls-10" d="M19.55,35.6h17.9a1.69,1.69,0,0,1,1.7,1.7v6a1.69,1.69,0,0,1-1.7,1.7H19.55a1.69,1.69,0,0,1-1.7-1.7v-6A1.63,1.63,0,0,1,19.55,35.6Z" transform="translate(-11.85 -26.1)"/><path class="cls-11" d="M19.15,36.7h18.6v7.2H19.15Z" transform="translate(-11.85 -26.1)"/><path class="cls-9" d="M25,40.3a2.1,2.1,0,0,1-2.1,2.1h0a2.1,2.1,0,0,1-2.1-2.1h0a2.1,2.1,0,0,1,2.1-2.1h0A2.1,2.1,0,0,1,25,40.3Z" transform="translate(-11.85 -26.1)"/><path class="cls-12" d="M27.95,36.7h-8.8v7.2h1.5C22.75,41.9,25.55,39.1,27.95,36.7Z" transform="translate(-11.85 -26.1)"/><path class="cls-13" d="M45.65,54.1a4,4,0,1,1-4-4A4,4,0,0,1,45.65,54.1Z" transform="translate(-11.85 -26.1)"/><path class="cls-10" d="M84.35,26.1h15.5v3.6H84.35Z" transform="translate(-11.85 -26.1)"/></svg>