<svg id="master-artboard" xmlns="http://www.w3.org/2000/svg" viewBox="0 0 170.79 103.31"><defs><style>.cls-1,.cls-2,.cls-3,.cls-4,.cls-5,.cls-6,.cls-7{fill:none;stroke:#000;stroke-miterlimit:10;}.cls-1{stroke-width:1.88px;}.cls-2{stroke-width:2.81px;}.cls-3{stroke-width:2.67px;}.cls-4{stroke-width:3.76px;}.cls-5{stroke-width:1.34px;}.cls-6{stroke-width:2.08px;}.cls-7{stroke-width:1.05px;}</style></defs><title>craft_icon</title><polygon class="cls-1" points="146.95 17.54 125.39 14.59 112.06 31.78 120.28 51.93 141.84 54.88 155.18 37.68 146.95 17.54"/><polygon class="cls-1" points="155.94 5.94 119.85 1 97.52 29.79 111.29 63.52 147.39 68.46 169.71 39.67 155.94 5.94"/><path class="cls-2" d="M113.24,18" transform="translate(-2.62 -13.77)"/><path class="cls-3" d="M9.48,100" transform="translate(-2.62 -13.77)"/><path class="cls-4" d="M150,82.24" transform="translate(-2.62 -13.77)"/><path class="cls-3" d="M109.83,49.41" transform="translate(-2.62 -13.77)"/><path class="cls-4" d="M113.91,77.3" transform="translate(-2.62 -13.77)"/><path class="cls-5" d="M100.7,45.94l-83,36h0C5.38,88.19.46,99,4.89,107.73s17.53,11.58,29.83,5.32L113,76.29" transform="translate(-2.62 -13.77)"/><path class="cls-6" d="M12.61,100.52" transform="translate(-2.62 -13.77)"/><path class="cls-7" d="M84.6,56.52,19.8,85.66h0C10.19,90.54,6.57,98.79,10,105.58S23.49,114.84,33.1,110L94.21,80.21" transform="translate(-2.62 -13.77)"/></svg>