<svg id="master-artboard" xmlns="http://www.w3.org/2000/svg" viewBox="0 0 174.64 112.94"><defs><style>.cls-1{fill:none;}</style></defs><title>fencing_icon</title><path d="M51,86.28C60,79,69.27,71.91,78.54,64.92c4.62-3.51,9.31-6.94,14-10.41l14.06-10.27L120.72,34.1c4.75-3.33,9.47-6.72,14.26-10,9.53-6.63,19.13-13.17,28.9-19.47-9,7.31-18.25,14.38-27.53,21.36-4.62,3.52-9.31,6.94-14,10.41L108.32,46.67,94.17,56.81c-4.75,3.34-9.47,6.71-14.26,10C70.37,73.44,60.78,80,51,86.28Z" transform="translate(-10.12 -4.62)"/><path d="M49.5,106.06c-.1.06,0,0,.06,0l.19-.09c.13-.05.27-.17.42-.24A5.39,5.39,0,0,0,51,105a6.81,6.81,0,0,0,1.3-2,12.89,12.89,0,0,0,1-5.25,11.4,11.4,0,0,0,0-1.43c0-.48,0-1-.11-1.45C53,94,52.87,93,52.63,92s-.43-1.94-.72-2.89L51,86.28l1.48,2.64c.49.88.88,1.82,1.33,2.74s.75,1.91,1.13,2.87c.18.49.29,1,.44,1.5a13.27,13.27,0,0,1,.38,1.54,16,16,0,0,1,.07,6.63,10.93,10.93,0,0,1-1.33,3.4,9,9,0,0,1-1.9,2.28,5.53,5.53,0,0,1-1,.72Z" transform="translate(-10.12 -4.62)"/><line class="cls-1" x1="174.64" y1="9.16" x2="174.64" y2="9.28"/><path d="M37.67,96.31A42,42,0,0,1,32,103.17a69.81,69.81,0,0,1-6.56,5.74,68.58,68.58,0,0,1-7.21,4.89,41.49,41.49,0,0,1-8.09,3.76,41.5,41.5,0,0,1,5.69-6.87A68.59,68.59,0,0,1,22.37,105a69.81,69.81,0,0,1,7.22-4.89A42,42,0,0,1,37.67,96.31Z" transform="translate(-10.12 -4.62)"/><path d="M23.31,80.19a7.77,7.77,0,0,1,1.07-.49c.33-.14.64-.23,1-.33a16.22,16.22,0,0,1,1.89-.46A21.09,21.09,0,0,1,31,78.53a26.53,26.53,0,0,1,7.17,1l1.7.49,1.65.62c1.11.37,2.13.95,3.18,1.42s2,1.12,3,1.67l2.85,1.89-3.13-1.33c-1.08-.36-2.13-.75-3.2-1.07s-2.15-.62-3.25-.78l-1.63-.29-1.63-.16a23.39,23.39,0,0,0-6.36.32,17,17,0,0,0-2.93.85,11.71,11.71,0,0,0-1.33.61c-.2.12-.42.22-.6.34a2.44,2.44,0,0,0-.43.31Z" transform="translate(-10.12 -4.62)"/><path d="M15.78,106.94a38.36,38.36,0,0,1-2.33-15.62,27,27,0,0,1,1.7-8.11A17.17,17.17,0,0,1,20.23,76a16,16,0,0,1,8.24-3.38,25.19,25.19,0,0,1,8.36.66,40.41,40.41,0,0,1,14.18,7C45.93,79,41,77.65,36.15,77.17a27.86,27.86,0,0,0-7,.16,12.7,12.7,0,0,0-5.78,2.57c-3.27,2.62-5,7.19-6,11.94A91.28,91.28,0,0,0,15.78,106.94Z" transform="translate(-10.12 -4.62)"/><path d="M124,86.28c-9.77-6.3-19.37-12.84-28.9-19.47-4.78-3.29-9.51-6.67-14.26-10L66.68,46.67,52.61,36.4C48,32.93,43.27,29.5,38.65,26,29.37,19,20.16,11.94,11.12,4.62c9.77,6.3,19.37,12.84,28.9,19.47,4.78,3.29,9.5,6.67,14.26,10L68.43,44.24,82.5,54.51c4.66,3.47,9.34,6.9,14,10.41C105.73,71.91,115,79,124,86.28Z" transform="translate(-10.12 -4.62)"/><path d="M123.41,110.6a5.53,5.53,0,0,1-1-.72,9,9,0,0,1-1.9-2.28,10.93,10.93,0,0,1-1.33-3.4,16,16,0,0,1,.07-6.63,13.28,13.28,0,0,1,.38-1.54c.15-.5.26-1,.44-1.5.38-1,.69-2,1.13-2.87s.84-1.86,1.33-2.74L124,86.28l-.9,2.87c-.3,1-.48,1.94-.72,2.89S122,94,121.88,95c-.07.48-.07,1-.11,1.45a11.41,11.41,0,0,0,0,1.43,12.89,12.89,0,0,0,1,5.25,6.81,6.81,0,0,0,1.3,2,5.4,5.4,0,0,0,.81.7c.14.08.28.19.42.24l.19.09s.16.06.06,0Z" transform="translate(-10.12 -4.62)"/><path d="M137.33,96.31a42,42,0,0,1,8.08,3.76,69.81,69.81,0,0,1,7.22,4.89,68.58,68.58,0,0,1,6.56,5.74,41.5,41.5,0,0,1,5.69,6.87,41.49,41.49,0,0,1-8.09-3.76,68.58,68.58,0,0,1-7.21-4.89,69.81,69.81,0,0,1-6.56-5.74A42,42,0,0,1,137.33,96.31Z" transform="translate(-10.12 -4.62)"/><path d="M148.95,84.38a2.44,2.44,0,0,0-.43-.31c-.18-.12-.4-.23-.6-.34a11.7,11.7,0,0,0-1.33-.61,17,17,0,0,0-2.93-.85,23.39,23.39,0,0,0-6.36-.32l-1.63.16L134,82.4c-1.1.15-2.15.52-3.25.78s-2.12.71-3.2,1.07l-3.13,1.33,2.85-1.89c1-.55,2-1.15,3-1.67s2.08-1,3.18-1.42l1.65-.62,1.7-.49a26.53,26.53,0,0,1,7.17-1,21.09,21.09,0,0,1,3.74.37,16.22,16.22,0,0,1,1.89.46c.32.11.63.19,1,.33a7.77,7.77,0,0,1,1.07.49Z" transform="translate(-10.12 -4.62)"/><path d="M159.22,106.94a91.29,91.29,0,0,0-1.55-15.1c-1-4.75-2.77-9.32-6-11.94a12.7,12.7,0,0,0-5.78-2.57,27.86,27.86,0,0,0-7-.16C134,77.65,129.07,79,124,80.28a40.42,40.42,0,0,1,14.18-7,25.19,25.19,0,0,1,8.36-.66A16,16,0,0,1,154.77,76a17.17,17.17,0,0,1,5.07,7.19,27,27,0,0,1,1.7,8.11A38.36,38.36,0,0,1,159.22,106.94Z" transform="translate(-10.12 -4.62)"/></svg>