<svg id="master-artboard" xmlns="http://www.w3.org/2000/svg" viewBox="0 0 51.39 109.32"><defs><style>.cls-1,.cls-2{fill:none;stroke:#000;stroke-miterlimit:10;}.cls-1{stroke-width:1.32px;}.cls-2{stroke-width:0.58px;}</style></defs><title>skiing_icon</title><path class="cls-1" d="M59.18,28.93c.82-4.61,7-42.76,14-.07a7.8,7.8,0,0,1,.12,1.25v80.52a6.17,6.17,0,0,1-6.14,6.21H65.22a6.17,6.17,0,0,1-6.14-6.21V30A6.21,6.21,0,0,1,59.18,28.93Z" transform="translate(-58.43 -8.18)"/><line class="cls-2" x1="7.76" y1="22.58" x2="7.76" y2="99.61"/><path class="cls-1" d="M95.06,28.93c.82-4.61,7-42.76,14-.07a7.8,7.8,0,0,1,.12,1.25v80.52a6.17,6.17,0,0,1-6.14,6.21H101.1A6.17,6.17,0,0,1,95,110.63V30A6.21,6.21,0,0,1,95.06,28.93Z" transform="translate(-58.43 -8.18)"/><line class="cls-2" x1="43.64" y1="22.58" x2="43.64" y2="99.61"/></svg>